<svg xmlns="http://www.w3.org/2000/svg" width="1300" height="860" viewBox="0 0 1300 860">
  <rect width="1300" height="860" fill="#f7f7fb"/>
  <text x="40" y="50" font-family="Inter, Arial, sans-serif" font-size="30" font-weight="700" fill="#5b21b6">Component Hierarchy Map (CHM)</text>

  <g font-family="Inter, Arial, sans-serif" font-size="16" fill="#1d1031">
    <rect x="550" y="90" width="200" height="54" rx="10" fill="#ffffff" stroke="#7c3aed"/>
    <text x="635" y="124" text-anchor="middle">App</text>

    <rect x="510" y="190" width="280" height="54" rx="10" fill="#ffffff" stroke="#7c3aed"/>
    <text x="650" y="224" text-anchor="middle">MainLayout</text>

    <rect x="190" y="300" width="200" height="54" rx="10" fill="#ffffff" stroke="#10b981"/>
    <text x="290" y="334" text-anchor="middle">Header</text>

    <rect x="430" y="300" width="440" height="54" rx="10" fill="#ffffff" stroke="#10b981"/>
    <text x="650" y="334" text-anchor="middle">Main (Outlet)</text>

    <rect x="910" y="300" width="200" height="54" rx="10" fill="#ffffff" stroke="#10b981"/>
    <text x="1010" y="334" text-anchor="middle">Footer</text>

    <rect x="70" y="430" width="190" height="54" rx="10" fill="#ffffff" stroke="#7c3aed"/>
    <text x="165" y="464" text-anchor="middle">HomePage</text>

    <rect x="290" y="430" width="220" height="54" rx="10" fill="#ffffff" stroke="#7c3aed"/>
    <text x="400" y="464" text-anchor="middle">AthletesPage</text>

    <rect x="540" y="430" width="260" height="54" rx="10" fill="#ffffff" stroke="#7c3aed"/>
    <text x="670" y="464" text-anchor="middle">TryoutBookingPage</text>

    <rect x="830" y="430" width="210" height="54" rx="10" fill="#ffffff" stroke="#7c3aed"/>
    <text x="935" y="464" text-anchor="middle">CoachesPage</text>

    <rect x="1070" y="430" width="170" height="54" rx="10" fill="#ffffff" stroke="#7c3aed"/>
    <text x="1155" y="464" text-anchor="middle">NotFoundPage</text>

    <rect x="290" y="560" width="220" height="54" rx="10" fill="#ffffff" stroke="#10b981"/>
    <text x="400" y="594" text-anchor="middle">AthleteList</text>

    <rect x="290" y="680" width="220" height="54" rx="10" fill="#ffffff" stroke="#10b981"/>
    <text x="400" y="714" text-anchor="middle">AthleteCard</text>

    <rect x="540" y="560" width="260" height="54" rx="10" fill="#ffffff" stroke="#10b981"/>
    <text x="670" y="594" text-anchor="middle">TryoutBookingForm</text>

    <rect x="830" y="560" width="210" height="54" rx="10" fill="#ffffff" stroke="#10b981"/>
    <text x="935" y="594" text-anchor="middle">CoachDirectory</text>
  </g>

  <g stroke="#64748b" stroke-width="2" fill="none" marker-end="url(#arrow)">
    <path d="M650 144 L650 190"/>
    <path d="M650 244 L290 300"/>
    <path d="M650 244 L650 300"/>
    <path d="M650 244 L1010 300"/>

    <path d="M650 354 L165 430"/>
    <path d="M650 354 L400 430"/>
    <path d="M650 354 L670 430"/>
    <path d="M650 354 L935 430"/>
    <path d="M650 354 L1155 430"/>

    <path d="M400 484 L400 560"/>
    <path d="M400 614 L400 680"/>
    <path d="M670 484 L670 560"/>
    <path d="M935 484 L935 560"/>
  </g>

  <defs>
    <marker id="arrow" markerWidth="10" markerHeight="10" refX="8" refY="3" orient="auto" markerUnits="strokeWidth">
      <path d="M0,0 L0,6 L9,3 z" fill="#64748b"/>
    </marker>
  </defs>
</svg>
